<svg width="199" height="89" viewBox="0 0 199 89" fill="none" xmlns="http://www.w3.org/2000/svg">
<path d="M0.64 28.528C3.79733 28.2293 6.144 27.9093 7.68 27.568C9.25867 27.184 10.112 26.992 10.24 26.992C10.9653 26.992 11.328 27.312 11.328 27.952V30.704L11.072 48.432C16.1493 45.6587 19.4347 44.272 20.928 44.272C25.7067 44.272 28.8853 45.7013 30.464 48.56C31.872 51.0773 32.576 54.9173 32.576 60.08C32.576 65.2427 31.6587 69.2107 29.824 71.984C29.3547 72.624 28.352 73.6267 26.816 74.992C25.3227 76.3573 23.8507 77.36 22.4 78C20.9493 78.64 19.1147 78.96 16.896 78.96C14.72 78.96 12.48 78.5973 10.176 77.872C7.872 77.104 6.31467 76.144 5.504 74.992C5.46133 69.744 5.44 63.92 5.44 57.52C5.44 41.1787 5.20533 32.5387 4.736 31.6C4.48 31.0027 3.62667 30.6827 2.176 30.64H0.768L0.64 28.528ZM11.008 55.408C10.9653 57.968 10.944 61.232 10.944 65.2C10.944 69.1253 11.1573 71.3013 11.584 71.728C12.096 72.368 13.184 73.008 14.848 73.648C16.512 74.2453 18.1547 74.544 19.776 74.544C21.3973 74.544 22.656 74.288 23.552 73.776C24.4907 73.2213 25.1733 72.1973 25.6 70.704C26.0693 69.2107 26.3893 67.2267 26.56 64.752C26.7733 62.2773 26.88 60.272 26.88 58.736C26.88 57.2 26.5813 55.664 25.984 54.128C25.4293 52.5493 24.6827 51.3973 23.744 50.672C22.0373 49.3493 20.2667 48.688 18.432 48.688C16.64 48.688 14.1653 49.52 11.008 51.184V55.408ZM46.666 54.832L46.602 72.176C46.602 73.4987 46.986 74.3733 47.754 74.8C48.522 75.184 49.674 75.4827 51.21 75.696C52.7887 75.9093 53.642 76.016 53.77 76.016V78H35.85V75.824C36.874 75.696 37.5567 75.632 37.898 75.632C38.2393 75.5893 38.666 75.4613 39.178 75.248C39.7327 74.992 40.0527 74.7787 40.138 74.608C40.2233 74.3947 40.3513 73.968 40.522 73.328C40.6927 72.688 40.778 72.048 40.778 71.408V66.352C40.778 57.776 40.6287 52.7413 40.33 51.248C39.9887 49.584 38.7513 48.752 36.618 48.752L36.49 46.32C38.1967 46.1493 39.946 45.744 41.738 45.104C43.53 44.464 44.682 44.144 45.194 44.144C45.706 44.144 46.0687 44.4 46.282 44.912C46.4953 45.3813 46.602 46.256 46.602 47.536L46.666 49.968C50.4207 46.3413 53.386 44.528 55.562 44.528C57.1407 44.528 58.2287 44.72 58.826 45.104C59.4233 45.488 59.722 46.192 59.722 47.216C59.722 47.5573 59.3807 49.8613 58.698 54.128H56.394C56.1807 50.928 55.0927 49.328 53.13 49.328C52.0207 49.328 50.6553 49.84 49.034 50.864C47.4553 51.8453 46.666 53.168 46.666 54.832ZM69.03 39.28C68.3473 39.28 67.5793 38.768 66.726 37.744C65.8727 36.6773 65.446 35.9093 65.446 35.44C65.446 34.928 65.7873 34.032 66.47 32.752C67.1953 31.472 67.942 30.832 68.71 30.832C69.478 30.832 70.3313 31.2373 71.27 32.048C72.2087 32.816 72.678 33.712 72.678 34.736C72.678 35.76 72.23 36.784 71.334 37.808C70.4807 38.7893 69.7127 39.28 69.03 39.28ZM61.67 78V75.824C63.846 75.6533 65.2113 75.376 65.766 74.992C66.3207 74.5653 66.598 73.712 66.598 72.432V59.12C66.598 55.408 66.4913 52.8267 66.278 51.376C66.1073 49.9253 65.8087 49.008 65.382 48.624C64.9553 48.1973 64.1447 47.984 62.95 47.984H61.99L61.862 45.872C65.0193 45.5733 67.366 45.2533 68.902 44.912C70.4807 44.528 71.334 44.336 71.462 44.336C72.1873 44.336 72.55 44.6773 72.55 45.36C72.55 45.872 72.5287 47.28 72.486 49.584C72.3153 58.7147 72.23 66.5867 72.23 73.2C72.23 74.0533 72.5713 74.6933 73.254 75.12C73.9367 75.504 75.0247 75.7387 76.518 75.824V78H61.67ZM79.4765 78V75.824C79.8178 75.7813 80.2658 75.7173 80.8205 75.632C81.3752 75.504 81.7378 75.44 81.9085 75.44C82.0792 75.3973 82.3352 75.312 82.6765 75.184C83.0605 75.056 83.2952 74.9493 83.3805 74.864C83.4658 74.7787 83.6152 74.608 83.8285 74.352C84.0418 74.096 84.1485 73.84 84.1485 73.584C84.1912 73.328 84.2552 72.9867 84.3405 72.56C84.4258 72.0907 84.4685 71.6 84.4685 71.088V57.328C84.4685 52.9333 84.4045 45.9147 84.2765 36.272L84.2125 33.2C84.1698 32.1333 83.9138 31.4507 83.4445 31.152C82.9752 30.8533 82.0365 30.704 80.6285 30.704H79.7965L79.6685 28.592C82.8258 28.208 85.1725 27.8453 86.7085 27.504C88.2445 27.12 89.0978 26.928 89.2685 26.928C89.9938 26.928 90.3565 27.248 90.3565 27.888C90.4418 31.3867 90.4845 35.76 90.4845 41.008C90.4845 46.256 90.3778 51.8667 90.1645 57.84C89.9512 63.7707 89.8445 68.464 89.8445 71.92C89.8445 73.5413 90.0792 74.544 90.5485 74.928C91.0605 75.2693 92.4045 75.568 94.5805 75.824V78H79.4765ZM105.28 39.28C104.597 39.28 103.829 38.768 102.976 37.744C102.123 36.6773 101.696 35.9093 101.696 35.44C101.696 34.928 102.037 34.032 102.72 32.752C103.445 31.472 104.192 30.832 104.96 30.832C105.728 30.832 106.581 31.2373 107.52 32.048C108.459 32.816 108.928 33.712 108.928 34.736C108.928 35.76 108.48 36.784 107.584 37.808C106.731 38.7893 105.963 39.28 105.28 39.28ZM97.92 78V75.824C100.096 75.6533 101.461 75.376 102.016 74.992C102.571 74.5653 102.848 73.712 102.848 72.432V59.12C102.848 55.408 102.741 52.8267 102.528 51.376C102.357 49.9253 102.059 49.008 101.632 48.624C101.205 48.1973 100.395 47.984 99.2 47.984H98.24L98.112 45.872C101.269 45.5733 103.616 45.2533 105.152 44.912C106.731 44.528 107.584 44.336 107.712 44.336C108.437 44.336 108.8 44.6773 108.8 45.36C108.8 45.872 108.779 47.28 108.736 49.584C108.565 58.7147 108.48 66.5867 108.48 73.2C108.48 74.0533 108.821 74.6933 109.504 75.12C110.187 75.504 111.275 75.7387 112.768 75.824V78H97.92ZM140.623 52.912L140.367 69.808C140.367 70.8747 140.836 72.176 141.775 73.712C142.756 75.2053 143.247 76.08 143.247 76.336C143.247 76.5493 143.055 76.72 142.671 76.848C139.684 77.8293 137.999 78.32 137.615 78.32C137.273 78.32 136.911 78.0213 136.527 77.424C136.185 76.784 135.865 76.016 135.567 75.12C135.268 74.224 135.097 73.7547 135.055 73.712C134.415 74.1387 133.625 74.672 132.687 75.312C131.748 75.952 131.087 76.4 130.703 76.656C130.361 76.8693 129.849 77.1467 129.167 77.488C128.527 77.8293 127.951 78.064 127.439 78.192C126.244 78.4907 124.623 78.64 122.575 78.64C120.569 78.64 119.076 77.8293 118.095 76.208C117.113 74.5867 116.623 72.816 116.623 70.896C116.623 68.976 116.772 67.44 117.071 66.288C117.369 65.136 117.86 64.176 118.543 63.408C119.225 62.64 119.908 62 120.591 61.488C121.273 60.976 122.233 60.5493 123.47 60.208C124.751 59.824 125.839 59.5467 126.735 59.376C127.673 59.1627 128.975 58.9067 130.639 58.608C132.303 58.2667 133.647 57.9893 134.671 57.776L134.735 53.936C134.735 51.9733 134.031 50.5653 132.623 49.712C131.215 48.8587 129.508 48.432 127.503 48.432C125.54 48.432 124.175 48.944 123.407 49.968C122.639 50.9493 121.807 53.0827 120.911 56.368L118.286 56.112C118.286 52.4 118.927 49.7973 120.207 48.304C121.742 46.512 123.407 45.4027 125.199 44.976C126.991 44.5493 128.804 44.336 130.639 44.336C132.516 44.336 134.116 44.5493 135.439 44.976C136.761 45.4027 137.743 45.8933 138.383 46.448C139.065 46.96 139.577 47.6853 139.919 48.624C140.303 49.52 140.516 50.2453 140.559 50.8C140.601 51.3547 140.623 52.0587 140.623 52.912ZM122.383 69.616C122.383 72.7733 123.812 74.352 126.671 74.352C129.188 74.352 131.727 73.2853 134.287 71.152C134.585 70.896 134.735 69.3387 134.735 66.48C134.735 63.6213 134.713 61.552 134.671 60.272C133.903 60.528 132.921 60.848 131.727 61.232C130.575 61.616 129.743 61.8933 129.231 62.064C128.761 62.2347 128.121 62.4693 127.311 62.768C126.5 63.024 125.945 63.2373 125.647 63.408C125.391 63.5787 125.007 63.792 124.495 64.048C124.025 64.304 123.727 64.56 123.599 64.816C123.471 65.0293 123.279 65.3067 123.023 65.648C122.767 65.9467 122.617 66.3093 122.575 66.736C122.447 67.9307 122.383 68.8907 122.383 69.616Z" fill="#35556D"/>
<path d="M165.526 25.6272L167.337 36.6249C168.034 40.8547 171.349 44.1699 175.579 44.8666L186.576 46.6781L175.579 48.4896C171.349 49.1863 168.034 52.5016 167.337 56.7314L165.526 67.729L163.714 56.7314C163.017 52.5016 159.702 49.1863 155.472 48.4896L144.475 46.6781L155.472 44.8666C159.702 44.1699 163.017 40.8547 163.714 36.6249L165.526 25.6272Z" fill="#E1F2FF"/>
<path d="M144.475 0L145.639 7.06854C146.336 11.2984 149.651 14.6136 153.881 15.3103L160.949 16.4746L153.881 17.6389C149.651 18.3356 146.336 21.6509 145.639 25.8807L144.475 32.9492L143.31 25.8807C142.614 21.6509 139.298 18.3356 135.069 17.6389L128 16.4746L135.069 15.3103C139.298 14.6136 142.614 11.2984 143.31 7.06854L144.475 0Z" fill="#E1F2FF"/>
<path d="M185.478 0L186.125 3.92525C186.821 8.15509 190.137 11.4703 194.366 12.167L198.292 12.8136L194.366 13.4601C190.137 14.1569 186.821 17.4721 186.125 21.7019L185.478 25.6272L184.832 21.7019C184.135 17.4721 180.82 14.1569 176.59 13.4601L172.665 12.8136L176.59 12.167C180.82 11.4703 184.135 8.15509 184.832 3.92526L185.478 0Z" fill="#E1F2FF"/>
</svg>
